<svg xmlns="http://www.w3.org/2000/svg" width="800" height="400" viewBox="0 0 800 400" role="img" aria-label="Perpustakaan Digital">
  <defs>
    <linearGradient id="bg" x1="0" y1="0" x2="1" y2="1">
      <stop offset="0%" stop-color="#047857"/>
      <stop offset="100%" stop-color="#0d2a20"/>
    </linearGradient>
    <pattern id="grid" width="40" height="40" patternUnits="userSpaceOnUse">
      <path d="M40 0 H0 V40" fill="none" stroke="rgba(255,255,255,0.07)" stroke-width="1"/>
    </pattern>
    <linearGradient id="sheen" x1="0" y1="0" x2="1" y2="0">
      <stop offset="0%" stop-color="#D4AF37" stop-opacity="0.85"/>
      <stop offset="100%" stop-color="#D4AF37" stop-opacity="0"/>
    </linearGradient>
  </defs>

  <rect width="800" height="400" fill="url(#bg)"/>
  <rect width="800" height="400" fill="url(#grid)"/>
  <rect x="0" y="0" width="800" height="4" fill="url(#sheen)"/>
  <circle cx="690" cy="72" r="150" fill="rgba(255,255,255,0.05)"/>

  <g transform="translate(56 72)" opacity="0.92">
    <path d="M12 10 H30 C32 10 32 12 32 12 V54 C32 54 32 52 30 52 H12 Z M52 10 H34 C32 10 32 12 32 12 V54 C32 54 32 52 34 52 H52 Z" fill="none" stroke="#f8fafc" stroke-width="3" stroke-linejoin="round" stroke-linecap="round"/>
  </g>

  <text x="56" y="212" font-family="Poppins,Segoe UI,sans-serif" font-size="46" font-weight="700" fill="#ffffff">Perpustakaan Digital</text>
  <text x="56" y="254" font-family="Poppins,Segoe UI,sans-serif" font-size="21" fill="rgba(255,255,255,0.75)">UIN Jakarta</text>
<g transform="translate(56 300)">
      <rect rx="14" width="69" height="28" fill="rgba(255,255,255,0.14)" stroke="rgba(255,255,255,0.24)"/>
      <text x="34.5" y="19" font-family="Poppins,Segoe UI,sans-serif" font-size="13" fill="#f8fafc" text-anchor="middle">React</text>
    </g>
<g transform="translate(135 300)">
      <rect rx="14" width="112" height="28" fill="rgba(255,255,255,0.14)" stroke="rgba(255,255,255,0.24)"/>
      <text x="56" y="19" font-family="Poppins,Segoe UI,sans-serif" font-size="13" fill="#f8fafc" text-anchor="middle">TypeScript</text>
    </g>
  <text x="744" y="366" font-family="Poppins,Segoe UI,sans-serif" font-size="14" fill="rgba(255,255,255,0.45)" text-anchor="end">damta</text>
</svg>
